<?xml version="1.0" encoding="utf-8"?>
<!-- Generator: Adobe Illustrator 23.0.2, SVG Export Plug-In . SVG Version: 6.00 Build 0)  -->
<svg version="1.1" id="Layer_1" xmlns="http://www.w3.org/2000/svg" xmlns:xlink="http://www.w3.org/1999/xlink" x="0px" y="0px"
	 viewBox="0 0 358.3567 260.1628" enable-background="new 0 0 358.3567 260.1628" xml:space="preserve">
<g>
	<path d="M23.4308,137.6813v113.7329c0,4.8335,3.9189,8.7485,8.749,8.7485s8.7481-3.915,8.7481-8.7485v-63.875h3.2802v63.875
		c0,4.8335,3.918,8.7485,8.7481,8.7485c4.832,0,8.748-3.915,8.748-8.7485V137.6803c2.8164-1.4693,6.668-4.086,10.4463-8.6089
		c1.9082-2.2769,3.7608-5.0352,5.4492-8.3052v-5.7329c-2.1767-1.3179-4.747-3.167-7.4209-5.6709
		c-1.9404,5.688-4.3994,9.6602-6.7168,12.4512c-2.4472,2.9272-4.8037,4.6011-6.4687,5.5464
		c-0.7354,0.4184-1.3272,0.6831-1.7334,0.8476H29.88c-1.4932-0.6049-5.5625-2.6035-9.5576-8.1386
		c-4.4444-6.1919-8.9863-17.0323-8.999-36.2188c-0.002-0.6269,0.0039-1.2529,0.0127-1.876
		c0.0556-3.1264-2.4327-5.7046-5.5596-5.7597c-3.126-0.0562-5.7041,2.435-5.7588,5.561c-0.0137,0.708-0.0176,1.4004-0.0176,2.0747
		c-0.0254,23.0596,6.1699,37.0879,12.9854,45.2212C16.7628,133.5948,20.6173,136.212,23.4308,137.6813z"/>
	<path d="M42.5695,124.1754c8.7939,0,15.9199-7.1269,15.9199-15.9199c0-8.7935-7.126-15.9214-15.9199-15.9214
		c-8.793,0-15.9209,7.1279-15.9209,15.9214C26.6486,117.0485,33.7765,124.1754,42.5695,124.1754z"/>
	<path d="M81.5988,112.6993v136.9312c0,5.8188,4.7167,10.5322,10.5312,10.5322c5.8184,0,10.5352-4.7134,10.5352-10.5322v-76.9038
		h3.9472v76.9038c0,5.8188,4.7168,10.5322,10.5332,10.5322c5.8184,0,10.5332-4.7134,10.5332-10.5322V112.6988
		c3.3907-1.7685,8.0274-4.9194,12.5762-10.3652c1.3223-1.5771,2.624-3.3413,3.8789-5.3027v-5.6021
		c-2.6172-1.7148-5.5781-4.0034-8.6133-6.9697c-1.8183,3.8516-3.8134,6.8306-5.7285,9.1362
		c-2.9453,3.5244-5.7793,5.5406-7.7851,6.6778c-0.8868,0.5034-1.5977,0.8232-2.0879,1.021H89.3624
		c-1.7969-0.729-6.6972-3.1353-11.5078-9.7994c-5.3496-7.4541-10.8164-20.5058-10.834-43.6049
		c-0.0019-0.7549,0.0059-1.5088,0.0176-2.2593c0.0664-3.7642-2.9316-6.8677-6.6934-6.9341
		c-3.7656-0.0674-6.8691,2.9312-6.9335,6.6948c-0.0176,0.8526-0.0215,1.6861-0.0215,2.4986
		c-0.0313,27.7622,7.4277,44.6518,15.6328,54.4438C73.5714,107.7799,78.2101,110.9308,81.5988,112.6993z"/>
	
		<ellipse transform="matrix(0.9871 -0.1602 0.1602 0.9871 -11.0265 17.7592)" cx="104.6398" cy="77.2721" rx="19.1679" ry="19.168"/>
	<path d="M303.0968,128.2076c-0.4063-0.1645-0.998-0.4292-1.7334-0.8476c-1.665-0.9453-4.0215-2.6192-6.4687-5.5464
		c-2.3174-2.791-4.7764-6.7622-6.7159-12.4492c-2.6738,2.5019-5.2441,4.351-7.4199,5.6689v5.7368
		c1.6875,3.2681,3.54,6.0254,5.4473,8.3013c3.7783,4.5229,7.6299,7.1396,10.4463,8.6089v113.7339
		c0,4.8335,3.916,8.7485,8.748,8.7485c4.8301,0,8.7481-3.915,8.7481-8.7485v-63.875h3.2802v63.875
		c0,4.8335,3.918,8.7485,8.7481,8.7485s8.749-3.915,8.749-8.7485V137.6813c2.8135-1.4693,6.668-4.0865,10.4453-8.6099
		c6.8154-8.1333,13.0108-22.1616,12.9854-45.2212c0-0.6743-0.0039-1.3667-0.0176-2.0747c-0.0547-3.126-2.6328-5.6172-5.7588-5.561
		c-3.127,0.0551-5.6152,2.6333-5.5596,5.7597c0.0088,0.6231,0.0147,1.2491,0.0127,1.876
		c-0.0127,19.1865-4.5547,30.0269-8.999,36.2188c-3.9951,5.5351-8.0645,7.5337-9.5576,8.1386H303.0968z"/>
	<path d="M299.8673,108.2555c0,8.793,7.126,15.9199,15.9199,15.9199c8.793,0,15.9209-7.1269,15.9209-15.9199
		c0-8.7935-7.1279-15.9214-15.9209-15.9214C306.9933,92.3341,299.8673,99.462,299.8673,108.2555z"/>
	<path d="M238.4376,101.2941c-0.4902-0.1978-1.2012-0.5176-2.0879-1.021c-2.0058-1.1372-4.8398-3.1534-7.7851-6.6778
		c-1.9151-2.3061-3.9112-5.2856-5.7295-9.1382c-3.0332,2.9639-5.9942,5.2544-8.6113,6.9717v5.6035
		c1.2548,1.9605,2.5566,3.7246,3.8779,5.3013c4.5488,5.4458,9.1855,8.5967,12.5762,10.3652v136.9317
		c0,5.8188,4.7148,10.5322,10.5332,10.5322c5.8164,0,10.5332-4.7134,10.5332-10.5322v-76.9038h3.9472v76.9038
		c0,5.8188,4.7168,10.5322,10.5352,10.5322c5.8144,0,10.5312-4.7134,10.5312-10.5322V112.6993
		c3.3887-1.7685,8.0274-4.9194,12.5762-10.3657c8.2051-9.792,15.6641-26.6816,15.6328-54.4438c0-0.8125-0.0039-1.646-0.0215-2.4986
		c-0.0644-3.7636-3.1679-6.7622-6.9336-6.6948c-3.7617,0.0664-6.7597,3.1699-6.6933,6.9341
		c0.0117,0.7505,0.0195,1.5044,0.0176,2.2593c-0.0176,23.0991-5.4844,36.1508-10.834,43.6049
		c-4.8106,6.6641-9.711,9.0704-11.5078,9.7994H238.4376z"/>
	<circle cx="253.7169" cy="77.2721" r="19.168"/>
	<path d="M152.1329,86.8688v160.7334c0,6.83,5.5371,12.3632,12.3633,12.3632c6.8281,0,12.3652-5.5332,12.3652-12.3632v-90.2715
		h4.6348v90.2715c0,6.83,5.5371,12.3632,12.3633,12.3632c6.8281,0,12.3652-5.5332,12.3652-12.3632V86.8678
		c3.9785-2.0762,9.4219-5.7744,14.7617-12.1665c9.6329-11.4932,18.3887-31.3198,18.3497-63.9082
		c-0.002-0.9702-0.0098-1.9356-0.0215-2.8911c-0.0547-4.4195-3.6817-7.9566-8.0996-7.9014
		c-4.4161,0.0552-7.9532,3.6816-7.8985,8.0991c0.0098,0.9253,0.0196,1.8257,0.0196,2.6934
		c-0.0391,29.8642-7.7754,45.397-14.6309,53.6509c-3.457,4.1367-6.7852,6.5029-9.1406,7.8383
		c-1.0391,0.5913-1.8731,0.9659-2.4492,1.1988h-35.8692c-2.1094-0.8555-7.8594-3.6802-13.5058-11.503
		c-6.2813-8.7495-12.6993-24.0698-12.7188-51.1845c-0.0019-0.8868,0.0059-1.771,0.0195-2.6524
		c0.0782-4.4184-3.4394-8.0615-7.8574-8.1386c-4.418-0.0796-8.0605,3.4399-8.1387,7.8579
		c-0.0195,1.0009-0.0253,1.9795-0.0253,2.9331c-0.0372,32.5879,8.7187,52.4135,18.3515,63.9072
		C142.7111,81.0939,148.1544,84.7926,152.1329,86.8688z"/>
	<circle cx="179.1798" cy="45.2828" r="22.5"/>
</g>
</svg>
