<svg id="Layer_1" data-name="Layer 1" xmlns="http://www.w3.org/2000/svg" viewBox="0 0 27.25 16"><defs><style>.cls-1{fill:#f96302;}</style></defs><title>4x3</title><path class="cls-1" d="M10.46,9.26v2.4H9.36v2.62H6.23V11.66H1.75V9.12l4-7.56H9.36v7.7ZM6.37,5h0L4.26,9.26H6.37Zm8.69,3,1.78,1.81-1.16,1.16L13.88,9.15,12,11,10.89,9.77,12.72,8,10.89,6.13,12,5l1.81,1.81L15.69,5l1.16,1.16Zm5.22-2.85h-3a3.85,3.85,0,0,1,.39-1.75,5.16,5.16,0,0,1,.45-.68l.34-.3.34-.27a5.91,5.91,0,0,1,1-.4,5.37,5.37,0,0,1,1.35-.17,6.4,6.4,0,0,1,2.31.34,2.34,2.34,0,0,1,1.16.82,2.08,2.08,0,0,1,.51,1.21q.11,1,.11,1.33a2.55,2.55,0,0,1-.25,1,2.46,2.46,0,0,1-.51.71,1.49,1.49,0,0,1-.56.42,2.36,2.36,0,0,1-.45.08V7.6a1.59,1.59,0,0,1,1.1.45l.18.2L25,8.5a3.78,3.78,0,0,1,.34.68,4.09,4.09,0,0,1,.14.82l0,.4a4.23,4.23,0,0,1-.08.82,3.34,3.34,0,0,1-.59,1.72,2.73,2.73,0,0,1-1.13.9,2.89,2.89,0,0,1-1.27.39,8.73,8.73,0,0,1-1.16.06,13,13,0,0,1-1.5-.08,2.92,2.92,0,0,1-1.3-.51,2.58,2.58,0,0,1-1-1.1,5.59,5.59,0,0,1-.37-2h3.1v.2l0,.17,0,.28.11.42.14.34a.55.55,0,0,0,.34.25.91.91,0,0,0,.28.06.49.49,0,0,0,.2,0l.17,0,.17-.06q.14,0,.23-.23a1.45,1.45,0,0,0,.17-.79l0-.9a2.36,2.36,0,0,0-.2-1,.91.91,0,0,0-.87-.45h-.79v-2L21,6.72l.28,0a.47.47,0,0,0,.37-.23A1.4,1.4,0,0,0,21.92,6,2.6,2.6,0,0,0,22,5.06a1,1,0,0,0,0-.31A2.77,2.77,0,0,0,22,4.21a.77.77,0,0,0-.28-.4.35.35,0,0,0-.31-.17,1.15,1.15,0,0,0-.31,0l-.28.06-.25.25a3,3,0,0,0-.2.45l-.08.25Z"/></svg>